<?xml version="1.0" encoding="UTF-8"?>
<svg width="38px" height="38px" viewBox="0 0 38 38" version="1.1" xmlns="http://www.w3.org/2000/svg" xmlns:xlink="http://www.w3.org/1999/xlink">
    <!-- Generator: Sketch 54.1 (76490) - https://sketchapp.com -->
    <title>copy-icon</title>
    <desc>Created with Sketch.</desc>
    <g id="copy-icon" stroke="none" stroke-width="1" fill="none" fill-rule="evenodd">
        <g transform="translate(12.000000, 10.000000)" fill="#4E72B8" fill-rule="nonzero" id="Shape">
            <path d="M9.43155452,18 L2.78422274,18 C1.24895774,18 0,16.7383575 0,15.1875 L0,5.66015625 C0,4.10929871 1.24895774,2.84765625 2.78422274,2.84765625 L9.43155452,2.84765625 C10.9668195,2.84765625 12.2157773,4.10929871 12.2157773,5.66015625 L12.2157773,15.1875 C12.2157773,16.7383575 10.9668195,18 9.43155452,18 Z M2.78422274,4.25390625 C2.01665819,4.25390625 1.39211137,4.88479613 1.39211137,5.66015625 L1.39211137,15.1875 C1.39211137,15.9628601 2.01665819,16.59375 2.78422274,16.59375 L9.43155452,16.59375 C10.1991191,16.59375 10.8236659,15.9628601 10.8236659,15.1875 L10.8236659,5.66015625 C10.8236659,4.88479613 10.1991191,4.25390625 9.43155452,4.25390625 L2.78422274,4.25390625 Z M15,13.4296875 L15,2.8125 C15,1.26164246 13.7510423,0 12.2157773,0 L4.48955916,0 C4.10509716,0 3.79350348,0.314758301 3.79350348,0.703125 C3.79350348,1.0914917 4.10509716,1.40625 4.48955916,1.40625 L12.2157773,1.40625 C12.9833418,1.40625 13.6078886,2.03713988 13.6078886,2.8125 L13.6078886,13.4296875 C13.6078886,13.8180542 13.9194823,14.1328125 14.3039443,14.1328125 C14.6884063,14.1328125 15,13.8180542 15,13.4296875 Z"></path>
        </g>
    </g>
</svg>