<?xml version="1.0" encoding="utf-8"?>
<!-- Generator: Adobe Illustrator 26.0.2, SVG Export Plug-In . SVG Version: 6.00 Build 0)  -->
<svg version="1.1" id="Layer_1" xmlns="http://www.w3.org/2000/svg" xmlns:xlink="http://www.w3.org/1999/xlink" x="0px" y="0px"
	 viewBox="0 0 237 45" style="enable-background:new 0 0 237 45;" xml:space="preserve" width="200px">
<style type="text/css">
	.st0{fill-rule:evenodd;clip-rule:evenodd;fill:#F0B13B;}
	.st1{fill:#1D1A16;}
	.st2{fill-rule:evenodd;clip-rule:evenodd;fill:#1D1A16;}
	.st3{fill:#231F20;}
</style>
<g>
	<path class="st0" d="M31.8,4.6c8.8,0,15.9,7.1,15.9,15.9s-7.1,15.9-15.9,15.9s-15.9-7.1-15.9-15.9c0,0,0,0,0,0
		C15.9,11.7,23,4.6,31.8,4.6z M31.8,3C22,3,14.2,10.8,14.2,20.5S22,38.1,31.8,38.1s17.6-7.9,17.6-17.6S41.5,3,31.8,3z"/>
	<path class="st0" d="M31.7,33.2c-7,0-12.7-5.7-12.7-12.7c0-2.6,0.8-5.1,2.2-7.2l1.2,1.2c-3.3,5.1-1.9,11.9,3.2,15.2
		c1.8,1.1,3.8,1.8,5.9,1.8V33.2z"/>
	<path class="st0" d="M33.4,31.4c4.1-0.6,7.5-3.5,8.8-7.4l1.6,0.5c-1.5,4.6-5.6,7.9-10.3,8.5L33.4,31.4z"/>
	<path class="st0" d="M21.9,12.6c2.4-3,6-4.7,9.9-4.7h0.1c1.3,0,2.6,0.2,3.9,0.7l-0.5,1.6c-1.1-0.4-2.2-0.5-3.3-0.6h-0.2
		c-3.4,0-6.6,1.6-8.7,4.2"/>
	<path class="st0" d="M35.7,16.2L35.7,16.2c0.1,0.1,0.3,0.2,0.4,0.4C35.9,16.4,35.8,16.3,35.7,16.2z M32.6,24.6
		c1.9-0.4,3.3-2.1,3.3-4.1c0-0.6-0.1-1.3-0.4-1.8l0,0c-0.2-0.5-0.6-1-1-1.3l0,0c-1.6-1.3-3.9-1.3-5.4,0l0,0c-0.4,0.4-0.8,0.8-1,1.3
		l0,0c-0.3,0.6-0.4,1.2-0.4,1.8c0,2,1.4,3.7,3.4,4.1l0,0c0.3,0.1,0.5,0.1,0.8,0.1C32.1,24.7,32.3,24.7,32.6,24.6L32.6,24.6z
		 M32.6,26.3L32.6,26.3z M32.5,26.3L32.5,26.3z M31,26.3h0.3H31z M32.3,26.3L32.3,26.3z M31.3,26.3L31.3,26.3z M32.1,26.3L32.1,26.3
		z M31.5,26.3L31.5,26.3z M32,26.3L32,26.3z M31.5,26.3L31.5,26.3z M32,26.3L32,26.3z M31.9,26.3L31.9,26.3z M31.9,26.3L31.9,26.3z
		 M31.7,26.3L31.7,26.3z M27.4,16.6c-0.2,0.3-0.5,0.6-0.7,0.9L19,9.7c-0.3-0.3-0.3-0.8,0-1.2c0.3-0.3,0.9-0.3,1.2,0l7.7,7.7l0,0
		c2.2-2,5.6-2,7.8,0l7.7-7.7c0.3-0.3,0.9-0.3,1.2,0c0.3,0.3,0.3,0.9,0,1.2l0,0l-7.8,7.8c0.6,0.9,0.9,2,0.9,3.1c0,2.9-2.2,5.4-5,5.8
		v10.9c-0.2,0.5-0.6,0.7-1.1,0.6c-0.3-0.1-0.5-0.3-0.6-0.6V26.3l0,0c-2.9-0.4-5-2.9-5-5.8c0-1.1,0.3-2.1,0.9-3.1l0,0
		C27,17.1,27.2,16.8,27.4,16.6z"/>
	<path class="st1" d="M214.5,29.4V15.1c0-0.1-0.1-0.2-0.2-0.2h-3.5c-0.2,0-0.3-0.2-0.3-0.3v-2.9c0-0.2,0.1-0.3,0.3-0.3c0,0,0,0,0,0
		h10.7c0.2,0,0.3,0.2,0.3,0.3v2.9c0,0.2-0.1,0.3-0.3,0.3h-3.4c-0.1,0-0.2,0.1-0.2,0.2c0,0,0,0,0,0v14.3c0,0.2-0.1,0.3-0.3,0.3h-2.9
		C214.6,29.7,214.5,29.6,214.5,29.4z"/>
	<path class="st1" d="M194.2,11h-0.5c-0.2,0-0.3,0.1-0.3,0.3v18c0,0.2,0.1,0.3,0.3,0.3h2.9c0.2,0,0.3-0.2,0.3-0.3c0,0,0,0,0,0v-10
		c0-0.1,0.1-0.2,0.2-0.2c0,0,0,0,0,0l0,0c0.1,0,0.1,0,0.1,0.1l9.5,10.6c0.1,0,0.1,0.1,0.2,0.1h0.4c0.2,0,0.3-0.1,0.3-0.3V11.6
		c0-0.2-0.1-0.3-0.3-0.3h-2.9c-0.2,0-0.3,0.2-0.3,0.3v9.6c0,0.1-0.1,0.2-0.2,0.2c0,0,0,0,0,0l0,0c-0.1,0-0.1,0-0.1-0.1L194.2,11z"/>
	<path class="st2" d="M181,23.4c0,0.1,0,0.1,0,0.2c0,0.1,0.1,0.1,0.1,0.1h3.7c0.1,0,0.1,0,0.1-0.1c0-0.1,0-0.1,0-0.2l-1.8-4.4
		c0-0.1-0.1-0.1-0.2-0.1l0,0c-0.1,0-0.1,0-0.2,0.1L181,23.4z M183.3,11.2c0-0.1-0.1-0.2-0.2-0.2h-0.2c-0.1,0-0.2,0.1-0.2,0.2
		l-7.6,18c-0.1,0.2,0,0.4,0.2,0.4h2.6c0.3,0,0.6-0.2,0.7-0.5l0.9-2.2c0-0.1,0.1-0.1,0.2-0.1h6.6c0.1,0,0.1,0,0.2,0.1l0.9,2.1
		c0.1,0.2,0.2,0.4,0.3,0.5c0.1,0,0.2,0.1,0.3,0.1h2.6c0.2,0,0.3-0.2,0.2-0.4L183.3,11.2z"/>
	<path class="st1" d="M165.6,11.5c0-0.1-0.1-0.1-0.2-0.2h-3.1c-0.2,0-0.4,0.3-0.2,0.5l5.3,8.9c0,0,0,0.1,0,0.1v8.5
		c0,0.2,0.1,0.3,0.3,0.3h2.9c0.2,0,0.3-0.2,0.3-0.3v-8.6c0,0,0-0.1,0-0.1l5.4-8.9c0.1-0.1,0.1-0.3-0.1-0.4c0,0-0.1-0.1-0.2-0.1h-3.1
		c-0.1,0-0.2,0.1-0.2,0.2l-3.4,5.5c0,0.1-0.1,0.1-0.2,0.1c0,0-0.1,0-0.1-0.1L165.6,11.5z"/>
	<path class="st1" d="M147.5,20.5c0,3,2.3,5.5,5,5.5c2.7,0,5-2.5,5-5.5s-2.3-5.6-5-5.6C149.8,15,147.5,17.5,147.5,20.5z M144,20.5
		c0-5.3,3.7-9.5,8.5-9.5c4.7,0,8.5,4.2,8.5,9.5s-3.7,9.5-8.5,9.5C147.8,30,144,25.8,144,20.5L144,20.5z"/>
	<path class="st1" d="M135.3,29.8l7.6-18c0.1-0.2,0-0.4-0.2-0.4h-3.2c-0.1,0-0.2,0.1-0.2,0.2l0,0l-4,9.8c0,0.1-0.1,0.1-0.2,0.1h-0.1
		c-0.1,0-0.1,0-0.2-0.1l-3.9-9.8l0,0c0-0.1-0.1-0.2-0.2-0.2h-3.3c-0.2,0-0.3,0.2-0.2,0.4l7.5,18c0,0.1,0.1,0.2,0.2,0.2h0.2
		C135.1,30,135.3,29.9,135.3,29.8z"/>
	<path class="st1" d="M116.2,19.2c0,0.1,0.1,0.2,0.2,0.2h3.6c1.2-0.1,2.1-1.1,2-2.3c0-1.2-0.9-2.2-2-2.2h-3.6
		c-0.1,0-0.2,0.1-0.2,0.2V19.2z M112.8,29.4V11.6c0-0.2,0.1-0.3,0.3-0.3h7.2c2.8,0,5.1,2.5,5.1,5.6c0,2.3-1.4,4.4-3.5,5.3
		c0,0-0.1,0.1-0.1,0.1c0,0,0,0.1,0,0.1l3.3,6.8c0.1,0.2,0,0.5-0.2,0.5h-3.2c-0.1,0-0.2,0-0.2-0.1l-3.2-7c0-0.1-0.1-0.1-0.2-0.1h-1.7
		c-0.1,0-0.2,0.1-0.2,0.2c0,0,0,0,0,0v6.8c0,0.2-0.1,0.3-0.3,0.3h-2.9C112.9,29.8,112.8,29.6,112.8,29.4
		C112.8,29.5,112.8,29.4,112.8,29.4z"/>
	<path class="st1" d="M104.6,29.4V11.6c0-0.2,0.1-0.3,0.3-0.3h2.9c0.2,0,0.3,0.2,0.3,0.3v17.8c0,0.2-0.1,0.3-0.3,0.3h-2.9
		C104.7,29.7,104.6,29.6,104.6,29.4z"/>
	<path class="st2" d="M92.1,23.4c0,0.1,0,0.1,0,0.2c0,0.1,0.1,0.1,0.1,0.1h3.7c0.1,0,0.1,0,0.1-0.1c0-0.1,0-0.1,0-0.2L94.2,19
		c0-0.1-0.1-0.1-0.2-0.1l0,0c-0.1,0-0.1,0-0.2,0.1L92.1,23.4z M94.5,11.2c0-0.1-0.1-0.2-0.2-0.2H94c-0.1,0-0.2,0.1-0.2,0.2l-7.5,18
		c-0.1,0.2,0,0.4,0.2,0.4h2.6c0.3,0,0.6-0.2,0.7-0.5l0.9-2.2c0-0.1,0.1-0.1,0.2-0.1h6.6c0.1,0,0.1,0,0.2,0.1l0.9,2.1
		c0.1,0.2,0.2,0.4,0.3,0.5c0.1,0.1,0.2,0.1,0.3,0.1h2.6c0.2,0,0.3-0.1,0.3-0.3c0,0,0-0.1,0-0.1L94.5,11.2z"/>
	<path class="st1" d="M74.9,29.4V11.6c0-0.2,0.1-0.3,0.3-0.3h2.9c0.2,0,0.3,0.2,0.3,0.3V26c0,0.1,0.1,0.2,0.2,0.2h5.7
		c0.2,0,0.3,0.2,0.3,0.3v2.9c0,0.2-0.1,0.3-0.3,0.3h-9.1C75,29.7,74.9,29.6,74.9,29.4z"/>
	<path class="st1" d="M57.2,20.5c0-5.3,3.8-9.5,8.5-9.5c2.2,0,4.2,0.8,5.7,2.4c0.1,0.1,0.1,0.4,0,0.5l-1.9,2.2
		c-0.1,0.1-0.2,0.1-0.3,0c0,0,0,0,0,0l0,0c-0.9-0.9-2.1-1.4-3.4-1.4c-2.8,0-4.9,2.6-4.9,5.7s2.1,5.6,4.9,5.6c1.2,0,2.4-0.5,3.4-1.3
		c0.1-0.1,0.3-0.1,0.4,0l0,0l1.9,2.2c0.1,0.1,0.1,0.3,0,0.5C70,29.1,67.9,30,65.7,30C61,30,57.2,25.8,57.2,20.5z"/>
	<path class="st3" d="M136.8,40.4c-0.5,0-1-0.1-1.4-0.5c-0.3-0.4-0.5-0.8-0.5-1.3c0-0.6,0.3-1.1,0.7-1.4c0.6-0.4,1.3-0.5,2-0.5h1.4
		V36c0-0.4-0.1-0.8-0.4-1c-0.3-0.3-0.7-0.4-1.2-0.4c-0.4,0-0.9,0.1-1.2,0.4c-0.3,0.2-0.5,0.5-0.5,0.9h-0.6l0,0c0-0.5,0.2-1,0.6-1.3
		c0.5-0.4,1.1-0.6,1.7-0.5c0.6,0,1.2,0.2,1.6,0.5c0.4,0.4,0.6,0.9,0.6,1.5v3.1c0,0.4,0.1,0.8,0.2,1.2h-0.7c-0.1-0.3-0.1-0.7-0.1-1
		c-0.2,0.3-0.6,0.6-0.9,0.8C137.7,40.3,137.3,40.4,136.8,40.4z M135.6,38.7c0,0.3,0.1,0.6,0.4,0.8c0.3,0.2,0.7,0.3,1,0.3
		c0.4,0,0.9-0.1,1.2-0.3c0.4-0.2,0.7-0.5,0.9-0.9v-1.3h-1.4c-0.5,0-1,0.1-1.5,0.4C135.9,37.9,135.6,38.3,135.6,38.7z"/>
	<path class="st3" d="M141.6,34.1h0.6l0.1,1.1c0.4-0.8,1.2-1.2,2-1.2c0.6,0,1.2,0.2,1.5,0.6c0.4,0.6,0.6,1.2,0.5,1.9v3.8h-0.7v-3.7
		c0.1-0.5-0.1-1.1-0.4-1.5c-0.3-0.3-0.7-0.5-1.1-0.5c-0.4,0-0.9,0.1-1.2,0.4c-0.3,0.3-0.6,0.6-0.7,1v4.3h-0.7L141.6,34.1z"/>
	<path class="st3" d="M156.3,35.7v0.6h-4v3.5h4.6v0.6h-5.3V32h5.3v0.6h-4.6v3.1H156.3z"/>
	<path class="st3" d="M158.5,31.9l2.3,3.6l2.4-3.6h0.8l-2.8,4.1l2.9,4.2h-0.8l-2.4-3.7l-2.4,3.7h-0.8l2.9-4.2l-2.8-4.1H158.5z"/>
	<path class="st3" d="M166.2,31.9v7.8h4.1v0.6h-4.8v-8.4H166.2z"/>
	<path class="st3" d="M175.1,37.3L175.1,37.3c0,0.7,0.1,1.3,0.5,1.9c0.3,0.5,0.9,0.7,1.5,0.7c0.4,0,0.9-0.1,1.2-0.4
		c0.3-0.3,0.5-0.7,0.5-1.1h0.6l0,0c0,0.6-0.2,1.1-0.7,1.4c-0.5,0.4-1.1,0.6-1.7,0.6c-0.8,0-1.5-0.3-2-0.9c-0.5-0.6-0.7-1.4-0.7-2.3
		v-0.2c0-0.8,0.2-1.6,0.7-2.3c1-1.1,2.6-1.2,3.7-0.2c0.4,0.4,0.7,1,0.6,1.6l0,0h-0.6c0-0.4-0.2-0.9-0.5-1.2
		c-0.3-0.3-0.8-0.5-1.2-0.4c-0.6,0-1.1,0.2-1.5,0.7c-0.4,0.5-0.5,1.2-0.5,1.8L175.1,37.3z"/>
	<path class="st3" d="M180.5,37.3v-0.2c0-0.8,0.2-1.6,0.7-2.3c1-1.1,2.7-1.2,3.8-0.1c0,0,0.1,0.1,0.1,0.1c0.5,0.6,0.8,1.4,0.8,2.3
		v0.2c0,0.8-0.2,1.6-0.7,2.3c-0.5,0.6-1.2,0.9-2,0.9c-0.8,0-1.5-0.3-2-0.9C180.7,38.9,180.4,38.1,180.5,37.3z M181.2,37.1v0.2
		c0,0.7,0.2,1.3,0.6,1.8c0.7,0.8,1.9,1,2.7,0.3c0.1-0.1,0.2-0.2,0.3-0.3c0.4-0.5,0.6-1.2,0.6-1.8v-0.2c0-0.7-0.2-1.3-0.6-1.8
		c-0.4-0.5-0.9-0.7-1.5-0.7c-0.6,0-1.2,0.2-1.5,0.7C181.3,35.8,181.1,36.5,181.2,37.1z"/>
	<path class="st3" d="M192.1,36.3v3.9h-0.7v-3.6c0-0.6-0.1-1.1-0.4-1.6c-0.3-0.3-0.7-0.5-1.1-0.5c-0.8-0.1-1.6,0.5-1.8,1.4v4.4h-0.7
		v-6.2h0.6l0.1,1c0.4-0.7,1.2-1.2,2-1.1c0.9-0.1,1.7,0.5,1.9,1.4c0.3-0.9,1.1-1.4,2.1-1.4c1.4,0,2.1,0.9,2.1,2.7v3.6h-0.7v-3.6
		c0-0.6-0.1-1.1-0.4-1.6c-0.3-0.3-0.7-0.5-1.2-0.5c-0.5,0-0.9,0.2-1.2,0.5C192.3,35.4,192.1,35.9,192.1,36.3z"/>
	<path class="st3" d="M202.8,37.5v0.1c0,0.8-0.2,1.6-0.6,2.2c-0.4,0.5-1.1,0.9-1.8,0.8c-0.8,0-1.5-0.3-1.9-1v3.2h-0.7v-8.6h0.6
		l0.1,1c0.4-0.7,1.2-1.1,2-1.1c0.7,0,1.4,0.3,1.8,0.9C202.7,35.8,202.9,36.7,202.8,37.5z M202.1,37.6v-0.1c0-0.7-0.1-1.4-0.5-2
		c-0.3-0.5-0.8-0.8-1.4-0.8c-0.8,0-1.5,0.5-1.8,1.2v3c0.3,0.7,1,1.1,1.8,1.1c0.5,0,1.1-0.2,1.4-0.7C202,38.9,202.2,38.3,202.1,37.6z
		"/>
	<path class="st3" d="M206,40.4c-0.5,0-1-0.1-1.4-0.5c-0.3-0.4-0.5-0.8-0.5-1.3c0-0.6,0.3-1.1,0.7-1.4c0.6-0.4,1.3-0.5,2-0.5h1.4V36
		c0-0.4-0.1-0.8-0.4-1c-0.3-0.3-0.7-0.4-1.2-0.4c-0.4,0-0.9,0.1-1.2,0.4c-0.3,0.2-0.5,0.5-0.5,0.9h-0.6l0,0c0-0.5,0.2-1,0.7-1.3
		c0.5-0.4,1.1-0.6,1.7-0.5c0.6,0,1.2,0.2,1.6,0.5c0.4,0.4,0.6,0.9,0.6,1.5v3.1c0,0.4,0.1,0.8,0.2,1.2h-0.7c-0.1-0.3-0.1-0.7-0.1-1
		c-0.3,0.3-0.6,0.6-0.9,0.8C206.9,40.3,206.4,40.4,206,40.4z M204.7,38.7c0,0.3,0.1,0.6,0.4,0.8c0.3,0.2,0.7,0.3,1,0.3
		c0.4,0,0.9-0.1,1.2-0.3c0.4-0.2,0.6-0.5,0.8-0.9v-1.3h-1.4c-0.5,0-1,0.1-1.5,0.4C205,37.9,204.7,38.3,204.7,38.7L204.7,38.7z"/>
	<path class="st3" d="M210.7,34.1h0.6l0.1,1.1c0.4-0.8,1.2-1.2,2-1.2c0.6,0,1.2,0.2,1.5,0.6c0.4,0.6,0.6,1.2,0.5,1.9v3.8h-0.7v-3.7
		c0-0.5-0.1-1.1-0.4-1.5c-0.3-0.3-0.7-0.5-1.1-0.5c-0.4,0-0.9,0.1-1.2,0.4c-0.3,0.3-0.6,0.6-0.7,1v4.3h-0.7L210.7,34.1z"/>
	<path class="st3" d="M217.5,43.1c-0.2,0-0.4,0-0.5-0.1l0.1-0.6c0.1,0,0.3,0,0.4,0c0.3,0,0.5-0.1,0.7-0.3c0.2-0.3,0.4-0.6,0.5-0.9
		l0.3-0.9l-2.4-6.2h0.8l1.7,4.5l0.2,0.7l0,0l1.9-5.3h0.8l-2.7,7.2c-0.1,0.4-0.4,0.8-0.7,1.1C218.2,42.9,217.9,43.1,217.5,43.1z"/>
</g>
</svg>
