<?xml version="1.0" encoding="UTF-8"?>
<svg width="38px" height="38px" viewBox="0 0 38 38" version="1.1" xmlns="http://www.w3.org/2000/svg" xmlns:xlink="http://www.w3.org/1999/xlink">
    <!-- Generator: Sketch 54.1 (76490) - https://sketchapp.com -->
    <title>tick-icon</title>
    <desc>Created with Sketch.</desc>
    <g id="tick-icon" stroke="none" stroke-width="1" fill="none" fill-rule="evenodd">
        <g id="tick-icon-copy" transform="translate(11.000000, 13.000000)" fill="#4E72B8" fill-rule="nonzero" stroke="#4E72B8" stroke-width="1.06666667">
            <path d="M15.7664687,0.152611399 C15.497375,-0.0625181347 15.1039687,-0.0198341969 14.8877812,0.247834197 L6.57159375,10.544114 C6.45871875,10.6642073 6.30615625,10.7337824 6.1404375,10.7404041 C5.96984375,10.7472435 5.80828125,10.6866218 5.68659375,10.5715648 L1.05746875,6.15733679 C0.80825,5.91973057 0.41265625,5.92809326 0.17378125,6.17595855 C-0.0650625,6.42385492 -0.0566875,6.81743005 0.1925,7.05506736 L4.82346875,11.4710674 C5.17534375,11.8038031 5.63065625,11.984487 6.11309375,11.984487 C6.138875,11.984487 6.1648125,11.9839585 6.19071875,11.9829016 C6.70171875,11.9624767 7.1710625,11.7424663 7.51221875,11.3634404 C7.519625,11.3552021 7.5268125,11.3467461 7.5338125,11.3381347 L15.8621875,1.02674611 C16.078375,0.759046632 16.0355312,0.367709845 15.7664687,0.152611399 Z" id="Path"></path>
        </g>
    </g>
</svg>